<svg xmlns="http://www.w3.org/2000/svg" width="371.0" height="70.0" viewBox="-20.0 -35.0 371.0 70.0">
  <defs><marker id="arrow" viewBox="-10 -4 10 8" refX="0" refY="0" orient="auto" markerWidth="10" markerHeight="8"><path d="M -10 -4 L 0 0 L -10 4 Z" fill="rgba(0,0,0,1.0)" stroke="rgba(0,0,0,0.0)" stroke-width="1.0"/></marker></defs>
  <g transform="translate(17.5 0.0) rotate(0.0) scale(1.0 1.0)">
<rect x="-17.5" y="-15.0" width="35" height="30" stroke="rgba(211,211,211,1.0)" fill="rgba(255,255,255,1.0)"/>
</g>
<g transform="translate(54.5 0.0) rotate(0.0) scale(1.0 1.0)">
<rect x="-17.5" y="-15.0" width="35" height="30" stroke="rgba(211,211,211,1.0)" fill="rgba(255,255,255,1.0)"/>
</g>
<g transform="translate(91.5 0.0) rotate(0.0) scale(1.0 1.0)">
<rect x="-17.5" y="-15.0" width="35" height="30" stroke="rgba(211,211,211,1.0)" fill="rgba(255,255,255,1.0)"/>
</g>
<g transform="translate(128.5 0.0) rotate(0.0) scale(1.0 1.0)">
<rect x="-17.5" y="-15.0" width="35" height="30" stroke="rgba(211,211,211,1.0)" fill="rgba(255,255,255,1.0)"/>
</g>
<g transform="translate(165.5 0.0) rotate(0.0) scale(1.0 1.0)">
<rect x="-17.5" y="-15.0" width="35" height="30" stroke="rgba(211,211,211,1.0)" fill="rgba(255,255,255,1.0)"/>
</g>
<g transform="translate(202.5 0.0) rotate(0.0) scale(1.0 1.0)">
<rect x="-17.5" y="-15.0" width="35" height="30" stroke="rgba(211,211,211,1.0)" fill="rgba(255,255,255,1.0)"/>
</g>
<g transform="translate(239.5 0.0) rotate(0.0) scale(1.0 1.0)">
<rect x="-17.5" y="-15.0" width="35" height="30" stroke="rgba(211,211,211,1.0)" fill="rgba(255,255,255,1.0)"/>
</g>
<g transform="translate(276.5 0.0) rotate(0.0) scale(1.0 1.0)">
<rect x="-17.5" y="-15.0" width="35" height="30" stroke="rgba(211,211,211,1.0)" fill="rgba(255,255,255,1.0)"/>
</g>
<g transform="translate(313.5 0.0) rotate(0.0) scale(1.0 1.0)">
<rect x="-17.5" y="-15.0" width="35" height="30" stroke="rgba(211,211,211,1.0)" fill="rgba(255,255,255,1.0)"/>
</g>
<g transform="translate(17.5 0.0) rotate(0.0) scale(1.0 1.0)">
<text x="0" y="0" font-family="sans-serif" font-size="10" fill="rgba(0,0,0,1.0)" text-anchor="middle" dominant-baseline="middle">if</text>
</g>
<g transform="translate(54.5 0.0) rotate(0.0) scale(1.0 1.0)">
<text x="0" y="0" font-family="sans-serif" font-size="10" fill="rgba(0,0,0,1.0)" text-anchor="middle" dominant-baseline="middle">(</text>
</g>
<g transform="translate(91.5 0.0) rotate(0.0) scale(1.0 1.0)">
<text x="0" y="0" font-family="sans-serif" font-size="10" fill="rgba(0,0,0,1.0)" text-anchor="middle" dominant-baseline="middle">a</text>
</g>
<g transform="translate(128.5 0.0) rotate(0.0) scale(1.0 1.0)">
<text x="0" y="0" font-family="sans-serif" font-size="10" fill="rgba(0,0,0,1.0)" text-anchor="middle" dominant-baseline="middle">&lt;=</text>
</g>
<g transform="translate(165.5 0.0) rotate(0.0) scale(1.0 1.0)">
<text x="0" y="0" font-family="sans-serif" font-size="10" fill="rgba(0,0,0,1.0)" text-anchor="middle" dominant-baseline="middle">0</text>
</g>
<g transform="translate(202.5 0.0) rotate(0.0) scale(1.0 1.0)">
<text x="0" y="0" font-family="sans-serif" font-size="10" fill="rgba(0,0,0,1.0)" text-anchor="middle" dominant-baseline="middle">)</text>
</g>
<g transform="translate(239.5 0.0) rotate(0.0) scale(1.0 1.0)">
<text x="0" y="0" font-family="sans-serif" font-size="10" fill="rgba(0,0,0,1.0)" text-anchor="middle" dominant-baseline="middle">b</text>
</g>
<g transform="translate(276.5 0.0) rotate(0.0) scale(1.0 1.0)">
<text x="0" y="0" font-family="sans-serif" font-size="10" fill="rgba(0,0,0,1.0)" text-anchor="middle" dominant-baseline="middle">else</text>
</g>
<g transform="translate(313.5 0.0) rotate(0.0) scale(1.0 1.0)">
<text x="0" y="0" font-family="sans-serif" font-size="10" fill="rgba(0,0,0,1.0)" text-anchor="middle" dominant-baseline="middle">c</text>
</g>
</svg>